<svg width="40" height="40" viewBox="0 0 40 40" fill="none" xmlns="http://www.w3.org/2000/svg">
<circle cx="20" cy="20" r="19.5" stroke="#13120D"/>
<path d="M19.9998 16.1475C18.9778 16.1475 17.9977 16.5534 17.2751 17.2761C16.5525 17.9987 16.1465 18.9788 16.1465 20.0008C16.1465 21.0228 16.5525 22.0029 17.2751 22.7255C17.9977 23.4482 18.9778 23.8541 19.9998 23.8541C21.0218 23.8541 22.0019 23.4482 22.7245 22.7255C23.4472 22.0029 23.8532 21.0228 23.8532 20.0008C23.8532 18.9788 23.4472 17.9987 22.7245 17.2761C22.0019 16.5534 21.0218 16.1475 19.9998 16.1475ZM19.9998 22.5033C19.3359 22.5033 18.6992 22.2396 18.2297 21.7701C17.7602 21.3006 17.4965 20.6639 17.4965 20C17.4965 19.336 17.7602 18.6993 18.2297 18.2298C18.6992 17.7604 19.3359 17.4966 19.9998 17.4966C20.6637 17.4966 21.3005 17.7604 21.7699 18.2298C22.2394 18.6993 22.5032 19.336 22.5032 20C22.5032 20.6639 22.2394 21.3006 21.7699 21.7701C21.3005 22.2396 20.6637 22.5033 19.9998 22.5033Z" fill="#13120D"/>
<path d="M24.0058 16.9041C24.5019 16.9041 24.9041 16.5019 24.9041 16.0058C24.9041 15.5096 24.5019 15.1074 24.0058 15.1074C23.5096 15.1074 23.1074 15.5096 23.1074 16.0058C23.1074 16.5019 23.5096 16.9041 24.0058 16.9041Z" fill="#13120D"/>
<path d="M27.1111 15.0922C26.9182 14.5941 26.6234 14.1416 26.2456 13.764C25.8677 13.3863 25.4152 13.0916 24.917 12.8989C24.3339 12.68 23.7179 12.5617 23.0953 12.5489C22.2928 12.5139 22.0386 12.5039 20.0036 12.5039C17.9686 12.5039 17.7078 12.5039 16.912 12.5489C16.2898 12.561 15.6743 12.6794 15.092 12.8989C14.5936 13.0914 14.1409 13.386 13.7631 13.7637C13.3852 14.1414 13.0905 14.5939 12.8978 15.0922C12.6789 15.6753 12.5608 16.2913 12.5486 16.9139C12.5128 17.7156 12.502 17.9697 12.502 20.0056C12.502 22.0406 12.502 22.2997 12.5486 23.0972C12.5611 23.7206 12.6786 24.3356 12.8978 24.9197C13.091 25.4179 13.386 25.8702 13.764 26.2479C14.1419 26.6255 14.5945 26.9202 15.0928 27.1131C15.674 27.3407 16.2898 27.4676 16.9136 27.4881C17.7161 27.5231 17.9703 27.5339 20.0053 27.5339C22.0403 27.5339 22.3011 27.5339 23.097 27.4881C23.7195 27.4754 24.3355 27.3574 24.9186 27.1389C25.4167 26.9457 25.8691 26.6508 26.2469 26.2731C26.6247 25.8953 26.9196 25.4429 27.1128 24.9447C27.332 24.3614 27.4495 23.7464 27.462 23.1231C27.4978 22.3214 27.5086 22.0672 27.5086 20.0314C27.5086 17.9956 27.5086 17.7372 27.462 16.9397C27.4523 16.3083 27.3336 15.6833 27.1111 15.0922ZM26.0961 23.0356C26.0907 23.5158 26.0031 23.9916 25.837 24.4422C25.7118 24.7663 25.5202 25.0606 25.2745 25.3061C25.0288 25.5517 24.7344 25.7431 24.4103 25.8681C23.9646 26.0334 23.4939 26.1211 23.0186 26.1272C22.227 26.1639 22.0036 26.1731 19.9736 26.1731C17.942 26.1731 17.7345 26.1731 16.9278 26.1272C16.4527 26.1214 15.9822 26.0338 15.537 25.8681C15.2117 25.7439 14.9161 25.5528 14.6694 25.3072C14.4226 25.0616 14.2301 24.7669 14.1045 24.4422C13.9407 23.9964 13.853 23.5263 13.8453 23.0514C13.8095 22.2597 13.8011 22.0364 13.8011 20.0064C13.8011 17.9756 13.8011 17.7681 13.8453 16.9606C13.8507 16.4806 13.9383 16.0051 14.1045 15.5547C14.3586 14.8972 14.8795 14.3797 15.537 14.1281C15.9824 13.9632 16.4528 13.8755 16.9278 13.8689C17.7203 13.8331 17.9428 13.8231 19.9736 13.8231C22.0045 13.8231 22.2128 13.8231 23.0186 13.8689C23.494 13.8746 23.9648 13.9623 24.4103 14.1281C24.7344 14.2533 25.0287 14.4449 25.2744 14.6906C25.5201 14.9363 25.7117 15.2306 25.837 15.5547C26.0007 16.0005 26.0884 16.4707 26.0961 16.9456C26.132 17.7381 26.1411 17.9606 26.1411 19.9914C26.1411 22.0214 26.1411 22.2397 26.1053 23.0364H26.0961V23.0356Z" fill="#13120D"/>
</svg>
