<svg width="40" height="40" viewBox="0 0 40 40" fill="none" xmlns="http://www.w3.org/2000/svg">
<circle cx="20" cy="20" r="19.5" stroke="#13120D"/>
<path d="M26.3602 16.6641C26.371 16.81 26.371 16.955 26.371 17.1C26.371 21.5375 22.9935 26.6508 16.821 26.6508C14.9193 26.6508 13.1527 26.1 11.666 25.1433C11.936 25.1741 12.196 25.185 12.4768 25.185C13.9877 25.1886 15.4557 24.6834 16.6443 23.7508C15.9439 23.7381 15.2648 23.507 14.702 23.0897C14.1393 22.6725 13.7208 22.0899 13.5052 21.4233C13.7127 21.4541 13.921 21.475 14.1393 21.475C14.4402 21.475 14.7427 21.4333 15.0235 21.3608C14.2633 21.2073 13.5797 20.7952 13.089 20.1947C12.5983 19.5941 12.3308 18.8422 12.3318 18.0666V18.025C12.7793 18.2741 13.2985 18.43 13.8485 18.4508C13.3878 18.1446 13.0099 17.7291 12.7488 17.2414C12.4876 16.7538 12.3513 16.209 12.3518 15.6558C12.3518 15.0325 12.5177 14.4608 12.8085 13.9625C13.652 15 14.7039 15.8488 15.8963 16.4538C17.0887 17.0589 18.3948 17.4068 19.7302 17.475C19.6785 17.225 19.6468 16.9658 19.6468 16.7058C19.6466 16.2649 19.7333 15.8283 19.9019 15.421C20.0705 15.0136 20.3178 14.6435 20.6295 14.3318C20.9412 14.02 21.3114 13.7728 21.7187 13.6042C22.1261 13.4356 22.5626 13.3489 23.0035 13.3491C23.9702 13.3491 24.8427 13.7541 25.456 14.4091C26.2075 14.2638 26.9281 13.9895 27.586 13.5983C27.3355 14.374 26.8108 15.0317 26.1102 15.4483C26.7767 15.3723 27.428 15.197 28.0427 14.9283C27.5836 15.5975 27.0148 16.1844 26.3602 16.6641Z" fill="#13120D"/>
</svg>
