<svg width="40" height="40" viewBox="0 0 40 40" fill="none" xmlns="http://www.w3.org/2000/svg">
<circle cx="20" cy="20" r="19.5" stroke="#13120D"/>
<path d="M27.9935 16.0028C27.8985 15.6507 27.713 15.3295 27.4554 15.0713C27.1978 14.8131 26.8771 14.6269 26.5251 14.5312C25.2201 14.1728 19.9993 14.167 19.9993 14.167C19.9993 14.167 14.7793 14.1612 13.4735 14.5037C13.1217 14.6038 12.8016 14.7926 12.5439 15.0521C12.2862 15.3116 12.0995 15.6329 12.0018 15.9853C11.6576 17.2903 11.6543 19.997 11.6543 19.997C11.6543 19.997 11.651 22.717 11.9926 24.0087C12.1843 24.7228 12.7468 25.287 13.4618 25.4795C14.7801 25.8378 19.9868 25.8437 19.9868 25.8437C19.9868 25.8437 25.2076 25.8495 26.5126 25.5078C26.8647 25.4123 27.1858 25.2265 27.444 24.9688C27.7023 24.7111 27.8888 24.3905 27.9851 24.0387C28.3301 22.7345 28.3326 20.0287 28.3326 20.0287C28.3326 20.0287 28.3493 17.3078 27.9935 16.0028ZM18.3293 22.5045L18.3335 17.5045L22.6726 20.0087L18.3293 22.5045Z" fill="#13120D"/>
</svg>
