<svg width="25" height="25" viewBox="0 0 25 25" fill="none" xmlns="http://www.w3.org/2000/svg">
<path d="M10.2271 13.2953C10.6663 13.8825 11.2266 14.3684 11.8701 14.7199C12.5136 15.0715 13.2252 15.2806 13.9566 15.3329C14.688 15.3853 15.4221 15.2798 16.1091 15.0235C16.7961 14.7672 17.42 14.3662 17.9384 13.8476L21.0066 10.7794C21.9381 9.81498 22.4535 8.52326 22.4419 7.18248C22.4302 5.8417 21.8924 4.55914 20.9443 3.61103C19.9962 2.66292 18.7136 2.12513 17.3729 2.11347C16.0321 2.10182 14.7404 2.61725 13.7759 3.54874L12.0168 5.2976" stroke="#F7F6F4" stroke-width="2" stroke-linecap="round" stroke-linejoin="round"/>
<path d="M14.318 11.2499C13.8788 10.6627 13.3185 10.1769 12.675 9.8253C12.0315 9.47373 11.3199 9.26466 10.5885 9.21228C9.85711 9.1599 9.123 9.26543 8.43597 9.52171C7.74895 9.77799 7.12507 10.179 6.60667 10.6976L3.53849 13.7658C2.607 14.7302 2.09157 16.022 2.10322 17.3627C2.11487 18.7035 2.65267 19.9861 3.60078 20.9342C4.54889 21.8823 5.83145 22.4201 7.17223 22.4318C8.51301 22.4434 9.80472 21.928 10.7692 20.9965L12.518 19.2476" stroke="#F7F6F4" stroke-width="2" stroke-linecap="round" stroke-linejoin="round"/>
</svg>
