<svg width="26" height="25" viewBox="0 0 26 25" fill="none" xmlns="http://www.w3.org/2000/svg">
<path d="M20.6246 8.17876C20.6379 8.35774 20.6379 8.53569 20.6379 8.71365C20.6379 14.1597 16.4928 20.4351 8.91741 20.4351C6.58355 20.4351 4.41537 19.7591 2.59082 18.585C2.92218 18.6229 3.24127 18.6361 3.58593 18.6361C5.44013 18.6406 7.24182 18.0206 8.70059 16.876C7.84091 16.8605 7.00755 16.5768 6.31686 16.0647C5.62617 15.5526 5.11265 14.8376 4.84798 14.0196C5.10264 14.0574 5.35832 14.083 5.62627 14.083C5.99548 14.083 6.36673 14.0318 6.71139 13.9429C5.77842 13.7545 4.93949 13.2488 4.33725 12.5117C3.73501 11.7747 3.40664 10.8518 3.40798 9.90001V9.84887C3.95718 10.1547 4.59434 10.3459 5.26934 10.3715C4.70387 9.99572 4.24019 9.48583 3.91969 8.8873C3.59919 8.28876 3.43182 7.6202 3.43252 6.94126C3.43252 6.17626 3.63605 5.47467 3.99298 4.86308C5.02812 6.1364 6.31918 7.17809 7.78253 7.92068C9.24588 8.66328 10.8489 9.09023 12.4878 9.17387C12.4243 8.86706 12.3855 8.54899 12.3855 8.2299C12.3852 7.68884 12.4916 7.15302 12.6985 6.6531C12.9054 6.15317 13.2089 5.69893 13.5915 5.31634C13.9741 4.93375 14.4283 4.63032 14.9282 4.42339C15.4282 4.21646 15.964 4.11008 16.505 4.11035C17.6914 4.11035 18.7622 4.6074 19.5149 5.41126C20.4372 5.23291 21.3216 4.89624 22.129 4.41615C21.8216 5.36812 21.1776 6.17534 20.3178 6.6866C21.1357 6.59331 21.9351 6.3782 22.6895 6.04842C22.1261 6.86977 21.4279 7.59002 20.6246 8.17876Z" fill="#F7F6F4"/>
</svg>
