<svg width="21" height="17" viewBox="0 0 21 17" fill="none" xmlns="http://www.w3.org/2000/svg">
<path d="M18.3067 4.72417C18.32 4.90315 18.32 5.0811 18.32 5.25906C18.32 10.7051 14.1749 16.9805 6.59954 16.9805C4.26568 16.9805 2.09749 16.3045 0.272949 15.1304C0.604313 15.1683 0.923404 15.1816 1.26806 15.1816C3.12226 15.186 4.92395 14.566 6.38272 13.4214C5.52304 13.4059 4.68967 13.1223 3.99899 12.6102C3.3083 12.098 2.79477 11.383 2.53011 10.565C2.78477 10.6028 3.04045 10.6284 3.3084 10.6284C3.67761 10.6284 4.04886 10.5772 4.39352 10.4883C3.46054 10.2999 2.62162 9.79419 2.01938 9.05714C1.41714 8.3201 1.08877 7.39722 1.09011 6.44542V6.39428C1.63931 6.70008 2.27647 6.89133 2.95147 6.9169C2.38599 6.54113 1.92232 6.03124 1.60182 5.43271C1.28132 4.83417 1.11395 4.16561 1.11465 3.48667C1.11465 2.72167 1.31818 2.02008 1.67511 1.40849C2.71025 2.68181 4.0013 3.7235 5.46466 4.46609C6.92801 5.20869 8.53102 5.63564 10.1699 5.71929C10.1065 5.41247 10.0676 5.0944 10.0676 4.77531C10.0673 4.23425 10.1737 3.69844 10.3806 3.19851C10.5876 2.69858 10.891 2.24434 11.2736 1.86175C11.6562 1.47916 12.1104 1.17573 12.6104 0.968796C13.1103 0.761865 13.6461 0.655493 14.1872 0.655762C15.3735 0.655762 16.4443 1.15281 17.197 1.95667C18.1193 1.77832 19.0037 1.44165 19.8111 0.961557C19.5037 1.91353 18.8597 2.72075 17.9999 3.23201C18.8178 3.13872 19.6173 2.92361 20.3716 2.59383C19.8082 3.41518 19.1101 4.13543 18.3067 4.72417Z" fill="#13120D"/>
</svg>
