<svg width="25" height="25" viewBox="0 0 25 25" fill="none" xmlns="http://www.w3.org/2000/svg">
<path d="M19.7381 5.13078C17.8092 3.20089 15.2442 2.13725 12.5115 2.13623C6.88033 2.13623 2.29749 6.71703 2.29545 12.3482C2.29443 14.1482 2.76488 15.9052 3.65874 17.4536L2.27295 22.5908L7.62488 21.3257C9.11704 22.1398 10.7964 22.5683 12.5064 22.5693H12.5104C18.1406 22.5693 22.7234 17.9875 22.7265 12.3574C22.7285 9.62771 21.6669 7.06168 19.7381 5.13078ZM17.5095 15.9983C17.2968 16.5945 16.2547 17.1693 15.7862 17.2112C15.3178 17.2542 14.8791 17.4229 12.7232 16.573C10.1285 15.5503 8.49011 12.8902 8.36329 12.7204C8.23545 12.5496 7.32113 11.3367 7.32113 10.0808C7.32113 8.82487 7.98079 8.20714 8.21499 7.95248C8.4492 7.6968 8.72534 7.63339 8.89613 7.63339C9.0659 7.63339 9.2367 7.63339 9.38499 7.63953C9.56704 7.64668 9.76852 7.65589 9.95977 8.08032C10.1868 8.58555 10.6828 9.84759 10.7462 9.97543C10.8097 10.1033 10.8526 10.2526 10.7677 10.4224C10.6828 10.5921 10.6399 10.6985 10.5131 10.8478C10.3852 10.9971 10.2451 11.1802 10.1306 11.2948C10.0027 11.4216 9.86977 11.5607 10.0181 11.8153C10.1674 12.071 10.6787 12.9066 11.4376 13.5826C12.4133 14.4519 13.2345 14.7209 13.4902 14.8498C13.7459 14.9776 13.8942 14.9561 14.0435 14.7853C14.1928 14.6155 14.6817 14.0408 14.8515 13.7851C15.0212 13.5294 15.192 13.5724 15.4262 13.6573C15.6604 13.7421 16.9153 14.3599 17.17 14.4877C17.4257 14.6155 17.5954 14.679 17.6589 14.7853C17.7223 14.8907 17.7223 15.402 17.5095 15.9983Z" fill="#13120D"/>
</svg>
