<svg width="25" height="25" viewBox="0 0 25 25" fill="none" xmlns="http://www.w3.org/2000/svg">
<path d="M19.6013 5.03996C17.6725 3.11007 15.1075 2.04643 12.3748 2.04541C6.74362 2.04541 2.16078 6.6262 2.15873 12.2573C2.15771 14.0573 2.62816 15.8144 3.52203 17.3628L2.13623 22.5L7.48816 21.2348C8.98032 22.0489 10.6596 22.4775 12.3696 22.4785H12.3737C18.0038 22.4785 22.5867 17.8967 22.5898 12.2665C22.5918 9.53689 21.5302 6.97086 19.6013 5.03996ZM17.3728 15.9075C17.1601 16.5037 16.1179 17.0785 15.6495 17.1204C15.1811 17.1634 14.7424 17.3321 12.5865 16.4822C9.9918 15.4595 8.35339 12.7994 8.22657 12.6296C8.09873 12.4588 7.18441 11.2459 7.18441 9.98995C7.18441 8.73405 7.84407 8.11632 8.07828 7.86166C8.31248 7.60598 8.58862 7.54257 8.75941 7.54257C8.92918 7.54257 9.09998 7.54257 9.24828 7.54871C9.43032 7.55586 9.6318 7.56507 9.82305 7.9895C10.0501 8.49473 10.5461 9.75677 10.6095 9.88461C10.6729 10.0125 10.7159 10.1618 10.631 10.3315C10.5461 10.5013 10.5032 10.6077 10.3763 10.757C10.2485 10.9063 10.1084 11.0894 9.99384 11.2039C9.866 11.3308 9.73305 11.4698 9.88134 11.7245C10.0307 11.9802 10.542 12.8158 11.3009 13.4918C12.2766 14.3611 13.0978 14.6301 13.3535 14.7589C13.6092 14.8868 13.7575 14.8653 13.9068 14.6945C14.0561 14.5247 14.545 13.95 14.7148 13.6943C14.8845 13.4386 15.0553 13.4815 15.2895 13.5664C15.5237 13.6513 16.7786 14.269 17.0333 14.3969C17.289 14.5247 17.4587 14.5881 17.5221 14.6945C17.5855 14.7998 17.5855 15.3112 17.3728 15.9075Z" fill="#F7F6F4"/>
</svg>
