<svg width="161" height="45" viewBox="0 0 161 45" fill="none" xmlns="http://www.w3.org/2000/svg">
<path d="M1.4082 43.7413L11.1319 1.39526H19.1036L17.9758 32.3354L30.7217 1.39526H38.7482L29.0244 43.7413H23.2975L26.9111 27.9578L30.4808 13.4721L17.9101 43.5433H12.8073L13.7928 13.4721L10.6939 27.9578L7.08037 43.7413H1.4082Z" fill="#F7F6F4"/>
<path d="M35.373 43.7413L45.0968 1.39526H59.2224L57.9632 6.94974H50.2433L47.4182 19.2686H54.7438L53.4736 24.7131H46.148L43.06 38.1868H51.0646L49.7944 43.7413H35.373Z" fill="#F7F6F4"/>
<path d="M62.4623 38.7368H64.5647C65.7473 38.7368 66.6917 38.3518 67.4008 37.5819C68.1153 36.8119 68.7093 35.4013 69.1856 33.3473L73.9599 12.4382C74.4691 10.2384 74.5649 8.67658 74.2446 7.75267C73.9216 6.82325 73.1085 6.3558 71.8027 6.3558H69.9084L62.4623 38.7368ZM54.8848 43.7413L64.6194 1.39526H74.0804C77.1738 1.39526 79.2078 2.31643 80.1796 4.156C81.1569 5.99008 81.2363 8.69583 80.4205 12.2732L76.0623 31.3784C75.0768 35.6405 73.6533 38.767 71.7918 40.7606C69.9303 42.7486 67.3789 43.7413 64.1376 43.7413H54.8848Z" fill="#F7F6F4"/>
<path d="M79.2305 43.7413L88.9542 1.39526H95.371L85.6472 43.7413H79.2305Z" fill="#F7F6F4"/>
<path d="M106.436 31.0155L108.494 9.74348H108.396L100.928 31.0155H106.436ZM90.2952 43.7413L106.031 1.39526H114.506L111.177 43.7413H105.187L105.91 36.185H99.11L96.471 43.7413H90.2952Z" fill="#F7F6F4"/>
<path d="M127.369 43.7413L135.253 9.38054C134.566 10.0405 133.687 10.5519 132.614 10.9094C131.547 11.2696 130.536 11.4483 129.581 11.4483L130.654 6.66379C132.061 6.47406 133.482 5.92136 134.914 5.00295C136.351 4.08729 137.558 2.8774 138.538 1.37329H143.521L133.797 43.7413H127.369Z" fill="#F7F6F4"/>
<path d="M143.561 43.7413L151.445 9.38054C150.758 10.0405 149.879 10.5519 148.806 10.9094C147.738 11.2696 146.728 11.4483 145.772 11.4483L146.846 6.66379C148.253 6.47406 149.673 5.92136 151.105 5.00295C152.542 4.08729 153.75 2.8774 154.73 1.37329H159.712L149.988 43.7413H143.561Z" fill="#F7F6F4"/>
</svg>
