<svg width="60" height="60" viewBox="0 0 60 60" fill="none" xmlns="http://www.w3.org/2000/svg">
<circle cx="30" cy="30" r="30" fill="#13120D"/>
<path d="M23.5 34.4996C28 34.9996 31 30.9701 31 25.9995C25.1479 25.0623 21.8507 25.0115 16 25.9995C16 30.97 19 33.9996 23.5 34.4996Z" fill="#F7F6F4"/>
<path d="M36.5 35C40.6421 35 44 30.9706 44 26C38.4254 27.2519 35.1129 27.1241 29 26C29 30.9706 32.3579 35 36.5 35Z" fill="#F7F6F4"/>
<path opacity="0.8" d="M24 29C25.6569 29 27 27.2091 27 25H21C21 27.2091 22.3431 29 24 29Z" fill="#13120D"/>
<path opacity="0.8" d="M37 31C39.0883 31 40 28.7091 40 26.5H37H34C34 28.7091 34.9117 31 37 31Z" fill="#13120D"/>
<path d="M32.4453 46.0182C32.4698 45.7977 33 45.458 33.1443 45.3191C33.6245 44.857 34.259 44.4973 34.8444 44.1811C35.6989 43.7195 36.7924 43.25 37.7803 43.25" stroke="#F7F6F4" stroke-width="2" stroke-linecap="round"/>
</svg>
